<?xml version="1.0" standalone="no"?>
<!DOCTYPE svg PUBLIC "-//W3C//DTD SVG 20010904//EN"
 "http://www.w3.org/TR/2001/REC-SVG-20010904/DTD/svg10.dtd">
<svg version="1.0" xmlns="http://www.w3.org/2000/svg"
 width="133.000000pt" height="146.000000pt" viewBox="0 0 133.000000 146.000000"
 preserveAspectRatio="xMidYMid meet">

<g transform="translate(0.000000,146.000000) scale(0.100000,-0.100000)"
fill="#000000" stroke="none">
<path d="M479 1393 c-6 -16 -15 -38 -20 -50 -11 -30 -30 -29 -59 2 -34 37 -66
33 -80 -9 -15 -46 1 -192 30 -269 22 -59 69 -107 106 -107 27 0 40 -11 49 -40
12 -42 35 -60 64 -53 45 10 54 23 47 71 -5 37 -2 49 20 77 50 66 43 140 -28
283 -56 115 -107 152 -129 95z m82 -35 c15 -28 5 -21 -21 15 -15 20 -17 27 -6
18 9 -8 22 -23 27 -33z m-74 0 c-3 -8 -6 -5 -6 6 -1 11 2 17 5 13 3 -3 4 -12
1 -19z m-93 -27 c25 -26 31 -28 62 -19 19 5 47 7 62 5 21 -3 18 -4 -11 -6 -33
-1 -37 -4 -32 -20 3 -10 11 -38 18 -62 14 -50 34 -58 92 -39 42 14 45 36 10
78 -13 16 -22 32 -18 36 11 11 50 -67 68 -139 17 -67 17 -72 1 -107 -16 -32
-81 -88 -90 -77 -4 6 -26 71 -26 79 0 4 11 12 25 18 27 13 35 52 10 52 -9 0
-12 -6 -9 -17 5 -15 4 -15 -4 -4 -9 12 -17 13 -49 3 -21 -7 -44 -16 -52 -21
-21 -14 -3 -31 33 -31 31 0 34 -3 44 -40 5 -21 7 -42 4 -45 -3 -3 -21 -5 -41
-5 -52 0 -99 33 -122 85 -19 42 -44 193 -34 203 3 3 5 -2 5 -12 0 -13 9 -7 35
20 34 36 35 38 18 57 -10 11 -27 23 -38 28 -14 5 -15 8 -4 8 8 1 28 -12 43
-28z m-57 -13 c-3 -8 -6 -5 -6 6 -1 11 2 17 5 13 3 -3 4 -12 1 -19z m215 -80
c-6 -6 -15 -9 -18 -5 -4 3 -4 14 0 23 5 13 9 15 18 6 9 -9 9 -15 0 -24z m53
-305 c5 -25 2 -34 -14 -42 -36 -20 -58 -13 -70 20 -18 52 15 72 37 22 l12 -28
-6 29 c-3 18 0 32 8 37 17 10 24 2 33 -38z"/>
<path d="M387 1214 c-9 -10 2 -24 19 -24 8 0 14 7 14 15 0 15 -21 21 -33 9z"/>
<path d="M718 1160 c5 -13 29 -30 64 -44 83 -34 122 -61 176 -123 39 -44 53
-54 66 -46 15 8 13 14 -19 56 -59 78 -174 153 -262 172 -31 6 -32 5 -25 -15z"/>
<path d="M265 1018 c-68 -79 -115 -201 -115 -296 0 -36 3 -43 16 -38 9 3 18 6
20 6 2 0 4 15 4 33 0 80 46 198 100 261 29 32 40 76 21 76 -5 0 -26 -19 -46
-42z"/>
<path d="M1078 908 c-31 -11 -36 -32 -13 -54 8 -9 15 -22 15 -30 0 -10 -14 -3
-44 21 -43 35 -46 36 -85 24 -44 -13 -49 -20 -28 -41 16 -15 39 -80 36 -100
-5 -41 0 -46 36 -35 39 11 42 18 20 40 -7 8 -17 28 -21 43 l-7 29 44 -36 c61
-49 64 -50 92 -40 l25 10 -19 62 c-11 34 -17 69 -14 78 8 27 -7 39 -37 29z"/>
<path d="M793 823 c-55 -16 -62 -24 -40 -44 9 -9 11 -30 6 -78 -4 -36 -5 -69
-3 -73 3 -4 18 -2 34 4 30 10 40 33 18 40 -7 3 -9 12 -5 22 10 26 52 17 52
-11 0 -27 0 -27 48 -18 27 5 37 12 37 26 0 11 -4 19 -9 19 -14 0 -65 81 -66
103 0 27 -10 28 -72 10z m37 -83 c0 -4 -7 -10 -15 -14 -11 -4 -15 2 -15 21 0
21 2 24 15 13 8 -7 15 -16 15 -20z"/>
<path d="M650 779 c-14 -4 -37 -11 -52 -14 -80 -16 -77 -155 3 -180 49 -16
129 32 129 77 0 28 -48 24 -52 -4 -2 -15 -11 -24 -25 -26 -25 -4 -43 28 -43
75 0 24 2 25 41 19 52 -8 60 -2 47 34 -11 32 -11 32 -48 19z"/>
<path d="M428 713 c-23 -6 -22 -10 2 -58 22 -43 26 -80 10 -90 -12 -7 -40 54
-40 87 0 41 -11 48 -58 35 -35 -9 -41 -14 -36 -31 4 -11 13 -26 20 -34 8 -7
14 -20 14 -28 0 -8 7 -28 15 -44 14 -26 21 -30 59 -30 32 0 48 6 65 24 22 24
23 27 10 78 -7 29 -12 63 -10 76 2 22 -10 26 -51 15z"/>
<path d="M195 643 c-44 -14 -82 -26 -83 -28 -2 -2 1 -19 8 -39 8 -24 16 -33
26 -29 8 3 13 11 12 17 -2 6 2 12 7 13 14 3 36 -65 29 -92 -8 -32 7 -37 59
-19 47 16 53 33 21 59 -7 6 -17 27 -22 48 -8 30 -8 37 4 37 8 0 14 -7 14 -15
0 -9 6 -12 16 -8 11 4 13 13 8 37 -3 17 -9 34 -13 37 -3 4 -42 -5 -86 -18z"/>
<path d="M1082 653 c-6 -10 -13 -34 -17 -53 -4 -19 -16 -53 -27 -75 -91 -182
-285 -285 -478 -254 -81 12 -193 65 -242 114 -29 28 -42 35 -59 30 -20 -7 -18
-10 27 -57 149 -151 402 -178 597 -64 54 32 144 126 179 186 27 46 58 139 58
172 0 23 -26 23 -38 1z"/>
</g>
</svg>
